<?xml version="1.0" encoding="UTF-8" standalone="no"?>
<svg
   xmlns:dc="http://purl.org/dc/elements/1.1/"
   xmlns:cc="http://creativecommons.org/ns#"
   xmlns:rdf="http://www.w3.org/1999/02/22-rdf-syntax-ns#"
   xmlns:svg="http://www.w3.org/2000/svg"
   xmlns="http://www.w3.org/2000/svg"
   width="16"
   version="1.1"
   id="svg7384"
   height="16">
  <metadata
     id="metadata90">
    <rdf:RDF>
      <cc:Work
         rdf:about="">
        <dc:format>image/svg+xml</dc:format>
        <dc:type
           rdf:resource="http://purl.org/dc/dcmitype/StillImage" />
        <dc:title>Gnome Symbolic Icon Theme</dc:title>
      </cc:Work>
    </rdf:RDF>
  </metadata>
  <title
     id="title9167">Gnome Symbolic Icon Theme</title>
  <defs
     id="defs7386" />
  <path
     id="path952"
     d="M 2,2 C 0.892,2 0,2.892 0,4 v 8 c 0,1.108 0.892,2 2,2 H 7 V 12 H 2 V 4 h 12 v 2 h 2 V 4 C 16,2.892 15.108,2 14,2 Z"
     style="display:inline;opacity:1;vector-effect:none;fill:#241f31;fill-opacity:1;stroke:none;stroke-width:1;stroke-linecap:square;stroke-linejoin:round;stroke-miterlimit:4;stroke-dasharray:none;stroke-dashoffset:0;stroke-opacity:1;enable-background:new" />
  <path
     style="display:inline;fill:#241f31;fill-opacity:1;stroke:none;stroke-width:1.99999952;enable-background:new"
     clip-path="none"
     d="M 11,6 C 8.83336,6 6.98018,6.73878 6,8 v 1 h 2 c 0.78878,-0.60652 1.7588701,-1 3,-1 1.24113,0 2.21938,0.39348 3,1 h 2 V 8 C 15.00522,6.7771 13.1266,6 11,6 Z m 0,3 C 9.7426701,9 8.78429,9.31165 8,10 v 1 H 11 11.375 14 V 10 C 13.1631,9.32794 12.25733,9 11,9 Z m 0,3 c -1.1045699,0 -2,0.89543 -2,2 0,1.10457 0.8954301,2 2,2 1.10457,0 2,-0.89543 2,-2 0,-1.10457 -0.89543,-2 -2,-2 z"
     id="path6305-7" />
</svg>
